<?xml version="1.0" encoding="utf-8"?>
<!-- Generator: Adobe Illustrator 21.0.0, SVG Export Plug-In . SVG Version: 6.00 Build 0)  -->
<svg version="1.1" id="Capa_1" xmlns="http://www.w3.org/2000/svg" xmlns:xlink="http://www.w3.org/1999/xlink" x="0px" y="0px"
	 viewBox="0 0 28.5 28.5" style="enable-background:new 0 0 28.5 28.5;" xml:space="preserve">
<style type="text/css">
	.st0{fill:#F1A435;}
	.st1{fill:#FFFFFF;}
</style>
<g>
	<path class="st0" d="M13.3,20.5c-1.6,0-3-0.4-3.9-1.3l0,0C5.8,15.6,10,6,13.4,2.6s9-3.4,12.5,0c3.4,3.4,3.4,9,0,12.5
		C23.4,17.6,17.6,20.5,13.3,20.5z"/>
	<path class="st0" d="M6.5,28.5c-0.8,0-1.7-0.3-2.3-1c-0.6-0.6-0.9-1.4-1-2.2c-0.8,0-1.6-0.4-2.2-1S0,22.8,0,22c0-0.9,0.3-1.7,1-2.3
		c1.2-1.2,3.3-1.3,4.6-0.1l2.8-2.8c0.2-0.2,0.5-0.2,0.7,0s0.2,0.5,0,0.7l-3.2,3.2c-0.1,0.1-0.2,0.2-0.4,0.1c-0.1,0-0.3-0.1-0.4-0.2
		C5,20.5,5,20.4,4.9,20.4c-0.9-0.9-2.4-0.9-3.3,0C1.2,20.8,1,21.4,1,22s0.2,1.2,0.7,1.6c0.5,0.5,1.2,0.7,1.9,0.6
		c0.2,0,0.3,0,0.4,0.1c0.1,0.1,0.2,0.3,0.1,0.4c-0.1,0.7,0.1,1.4,0.6,1.9c0.9,0.9,2.4,0.9,3.3,0s0.9-2.4,0-3.3c0,0.2,0,0.1-0.1,0.1
		c-0.1-0.1-0.2-0.2-0.2-0.4c0-0.1,0-0.3,0.1-0.4l3.2-3.2c0.2-0.2,0.5-0.2,0.7,0s0.2,0.5,0,0.7l-2.8,2.8c1.2,1.3,1.2,3.3-0.1,4.6
		C8.1,28.1,7.3,28.5,6.5,28.5z"/>
	<path class="st1" d="M25,10.5c-0.1,0-0.2,0-0.2-0.1c-0.2-0.1-0.3-0.4-0.2-0.7c0-0.1,0.7-1.4-0.3-3.2c-0.1-0.2,0-0.5,0.2-0.7
		c0.2-0.1,0.5,0,0.7,0.2c1.3,2.3,0.3,4,0.3,4.1C25.3,10.4,25.2,10.5,25,10.5z"/>
</g>
</svg>
