<?xml version="1.0" encoding="utf-8"?>
<!-- Generator: Adobe Illustrator 21.0.2, SVG Export Plug-In . SVG Version: 6.00 Build 0)  -->
<svg version="1.1" xmlns="http://www.w3.org/2000/svg" xmlns:xlink="http://www.w3.org/1999/xlink" x="0px" y="0px"
	 viewBox="0 0 25 25" enable-background="new 0 0 25 25" xml:space="preserve">
<g id="Ebene_1">
</g>
<g id="Ebene_4">
	<g>
		<g>
			<g>
				<polygon fill="#F1A435" points="13.2,25 13.1,7.3 13.5,7.3 13.7,25 				"/>
			</g>
		</g>
	</g>
	<g>
		<g>
			<g>
				<g>
					<g>
						<g>
							<g>
								<path fill="#F1A435" d="M16.1,11.7c-2.4,2.3-3,6-2.5,9.9c0.7-2,2-4.4,3.4-6.6c0.9-1.3,1.8-2.3,2.3-3.6
									c-1.3,3.1-1.9,4.5-3.6,7.1c-0.7,1-1.3,2.4-2,3.3c1.7-0.4,3.3-1.1,4.5-2.2c2.5-2.3,3.3-6,2.6-10.1
									C18.9,9.8,17.3,10.5,16.1,11.7z"/>
							</g>
						</g>
					</g>
				</g>
			</g>
		</g>
	</g>
	<g>
		<g>
			<g>
				<g>
					<g>
						<g>
							<g>
								<path fill="#F1A435" d="M10.8,11.4c2.4,2.3,3,5.9,2.5,9.8c-0.7-2-2-4.2-3.4-6.3c-0.7-1-1.7-2.2-2.3-3.8
									c1,2.5,2.2,4.9,3.9,7.5c0.7,1,1,2,1.7,2.9c-1.7-0.4-3.3-1.1-4.5-2.2c-2.5-2.3-3.3-6-2.6-10.1C7.9,9.4,9.5,10.2,10.8,11.4z"
									/>
							</g>
						</g>
					</g>
				</g>
			</g>
		</g>
	</g>
	<g>
		<g>
			<g>
				<g>
					<g>
						<g>
							<g>
								<path fill="#F1A435" d="M15.9,2.4c-2,1.9-2.7,4.8-2.2,8.1c0.6-1.7,1.6-3.1,2.8-5.3c0.6-1.2,1.3-1.6,2.1-3
									c-1,1.8-1.6,3.7-3,5.9c-0.6,0.9-1.3,1.9-1.9,2.6c1.5-0.3,3-0.6,4-1.6c2.1-2,2.8-5.1,2.2-8.6C18.3,0.7,17,1.4,15.9,2.4z"/>
							</g>
						</g>
					</g>
				</g>
			</g>
		</g>
	</g>
	<g>
		<g>
			<g>
				<g>
					<g>
						<g>
							<g>
								<path fill="#F1A435" d="M11.2,2c2,1.9,2.7,4.9,2.3,8.2c-0.6-1.7-1.7-3.5-2.9-5.3c-0.5-0.8-0.9-1.7-2-3.2
									c1.2,1.6,1.8,4,3.2,6.1c0.6,0.9,1.2,1.7,1.8,2.5c-1.5-0.3-3-0.7-4-1.7C7.3,6.6,6.7,3.5,7.2,0C8.7,0.3,10.1,0.9,11.2,2z"/>
							</g>
						</g>
					</g>
				</g>
			</g>
		</g>
	</g>
</g>
</svg>
