<?xml version="1.0" encoding="utf-8"?>
<!-- Generator: Adobe Illustrator 21.0.0, SVG Export Plug-In . SVG Version: 6.00 Build 0)  -->
<svg version="1.1" id="Ebene_1" xmlns="http://www.w3.org/2000/svg" xmlns:xlink="http://www.w3.org/1999/xlink" x="0px" y="0px"
	 viewBox="0 0 253.6 294.9" style="enable-background:new 0 0 253.6 294.9;" xml:space="preserve">
<style type="text/css">
	.st0{fill:#FEFEFE;}
	.st1{fill:#BEBEBE;}
	.st2{fill:#F1A435;stroke:#FFFFFF;stroke-width:7;stroke-miterlimit:10;}
</style>
<g>
	<path class="st0" d="M89.8,19.8c0-0.3,0-0.6,0-0.9c27.3,0,54.6,0,81.9,0c0,0.3,0,0.6,0,0.8C144.4,19.7,117.1,19.8,89.8,19.8z"/>
	<path class="st1" d="M89.8,19.8c27.3,0,54.6,0,81.9,0c9.2,0.3,14.7,4.8,17.7,13.6c5.2,15.2,7.4,30.9,8.1,46.8
		c0.5,10.9,0.3,21.9,0.1,32.9c-0.3,17.4-4.5,34-10,50.3c-5.9,17.5-9.4,35.2-8.4,53.7c0.7,12.6,4.5,24.6,7,36.8
		c1.5,7.5,3.1,15,1.8,22.8c-1.2,7-3.6,9.6-10.5,10.7c-11.4,1.8-22.9,0.7-34.4,0.9c-15.8,0.2-31.6,0.1-47.4,0
		c-4.3,0-8.6-0.4-12.8-1.1c-4.3-0.8-7.3-3-8.4-7.9c-2.4-10.6,0.7-20.6,2.9-30.7c2.9-13.5,6.3-26.8,5.9-40.7
		c-0.4-17.2-4.8-33.6-10.2-49.7c-7.6-22.5-10.1-45.8-8.9-69.3c1-18.7,2.4-37.4,8.5-55.4C75.6,24.8,80.9,20.4,89.8,19.8z M130.8,77.1
		c17.4,0,34.8-0.1,52.2,0.1c4.3,0.1,5.4-1.5,4.9-5.3c-1.8-12.4-3.5-24.7-7.9-36.6c-1.8-4.7-4.9-6.7-9.7-6.7c-26,0-52,0-78.1,0
		c-5.2,0-8.4,2.3-10.2,7.6c-3.9,11.6-5.8,23.5-7.5,35.6c-0.7,5,0.9,5.4,5.1,5.4C96.7,77,113.7,77.1,130.8,77.1z"/>
	<path class="st0" d="M130.8,77.1c-17,0-34.1-0.1-51.1,0.1c-4.2,0.1-5.8-0.3-5.1-5.4c1.6-12.1,3.6-24,7.5-35.6
		c1.8-5.3,5-7.6,10.2-7.6c26,0,52,0,78.1,0c4.8,0,8,2,9.7,6.7c4.4,11.8,6.2,24.2,7.9,36.6c0.5,3.8-0.6,5.4-4.9,5.3
		C165.6,77,148.2,77.1,130.8,77.1z"/>
</g>
<g>
	<path class="st2" d="M123.7,137.9c0-2.8,0-5.5,0-8.3c0.1-0.3,0.4-0.5,0.4-0.8c1-12.1,12.6-26.1,25.5-27.1
		c7.4-0.6,14.4,0.6,20.4,5.3c3.3,2.6,6,5.7,8.8,8.7c2.2,2.5,2.3,2.4,4.6,0.1c2.3-2.3,4.5-4.6,6.9-6.8c8.2-7.9,19.2-9.6,29-5.5
		c10.2,4.2,16.4,12.3,18.5,23c2.3,11.5,0,22-8.3,30.7c-10,10.5-20.2,20.9-30.2,31.3c-5.4,5.6-10.8,11.3-16.2,17
		c-1.3,1.4-2.1,1.9-3.7,0c-3.7-4.3-7.8-8.3-11.7-12.3c-10.6-11-21.3-21.9-31.8-33c-3.2-3.4-6.5-6.7-8.6-11
		C125.5,145.6,124.6,141.8,123.7,137.9z"/>
</g>
</svg>
