<?xml version="1.0" encoding="utf-8"?>
<!-- Generator: Adobe Illustrator 21.0.0, SVG Export Plug-In . SVG Version: 6.00 Build 0)  -->
<svg version="1.1" id="Ebene_1" xmlns="http://www.w3.org/2000/svg" xmlns:xlink="http://www.w3.org/1999/xlink" x="0px" y="0px"
	 viewBox="0 0 253.6 294.9" style="enable-background:new 0 0 253.6 294.9;" xml:space="preserve">
<style type="text/css">
	.st0{fill:#BFBFBF;}
	.st1{fill:#FEFEFE;}
	.st2{fill:#F1A435;}
</style>
<g>
	<path class="st0" d="M42.1,281c-10.5-3.6-13.2-11.3-13.1-21.8c0.3-63.6,0.1-127.3,0.1-190.9c0-13,6.1-19.1,19.3-19.2
		c10.8,0,21.7,0.1,32.5-0.1c3.3,0,4.3,1,4.3,4.3C85.2,63,81.6,67,71.8,67c-5.7,0-11.3,0.1-17,0c-4.8-0.1-7,2.3-7.5,6.8
		c-0.2,1.3-0.1,2.7-0.1,4c0,58.5,0,117,0,175.4c0,8.6,1.2,9.9,9.7,9.9c47.3,0,94.6,0,141.9,0c7.2,0,8.4-1.1,8.4-8.4
		c0-59.6,0-119.3,0-178.9c0-7.3-1.4-8.6-8.8-8.6c-5.7,0-11.3,0.1-17,0c-10.2-0.2-13.3-6.9-12.2-15.8c0.2-1.5,1-2,2.4-2
		c13.2,0.1,26.4-0.5,39.4,0.5c9.7,0.7,14.1,7.1,14.1,17.2c0,34.2,0,68.3,0,102.5c0,30.5,0,61,0,91.5c0,12-2.4,15.7-13,20.1
		C155.5,281,98.8,281,42.1,281z"/>
	<path class="st0" d="M129.1,18c6.4,1.8,12.5,4,17,9.4c3.8,4.5,6.3,9.3,6.1,15.4c-0.1,3.2,0,6.3,0,9.5c0,8.8,2.5,12.7,11,14.8
		c9.7,2.4,14.4,8.7,16.5,17.8c0.7,3.1,0.2,4.3-3.1,4.3c-33-0.1-66-0.1-98.9,0c-2.9,0-3.7-1-3.2-3.9c1.8-8.9,6.9-14.8,15.4-18.1
		c11.3-4.3,12.6-5.9,12.1-18c-0.4-10,1.4-18.7,9.8-25.3c3.8-3,8.3-3.8,12.4-5.8C125.8,18,127.5,18,129.1,18z M120,44.1
		c0,5.5,2.2,7.8,7.2,7.9c4.6,0.1,7.7-3.1,7.8-7.8c0.1-4.9-3.2-8.2-8-8.2C122.2,36.1,120,38.5,120,44.1z"/>
	<path class="st0" d="M83.9,175.5c-7.5,0-15.1,0-22.6,0c-1.7,0-2.4-0.3-2.4-1.9c0.1-4.8,0-4.8,5.5-4.8c14,0,27.9,0,41.9,0
		c2,0,2.8,0.3,2.7,2.2c-0.2,4.5,0,4.5-5.4,4.5C97.1,175.5,90.5,175.5,83.9,175.5z"/>
	<path class="st0" d="M81.4,198.1c-6.6,0-13.2,0-19.8,0c-1.8,0-2.6-0.3-2.6-1.5c-0.3-5.2-0.3-5.2,8-5.2c11.2,0,22.4,0,33.6,0
		c2.3,0,3.3,0.2,3.3,1.9c-0.1,4.8,0,4.8-7.7,4.8C91.3,198.1,86.3,198.1,81.4,198.1z"/>
	<path class="st0" d="M89.2,152.9c-8.5,0-17.1,0-25.6,0c-3.1,0-4.6-0.2-4.6-1.7c-0.1-5-0.2-5,12.2-5c14.3,0,28.7,0.1,43,0
		c4.1,0,5.1,0.5,5.1,2.1c-0.2,4.6,0,4.6-11.3,4.6C101.8,152.9,95.5,152.9,89.2,152.9z"/>
	<path class="st0" d="M89.2,218.4c-8.5,0-17.1,0-25.6,0c-3.1,0-4.6-0.2-4.6-1.7c-0.1-5-0.2-5,12.2-5c14.3,0,28.7,0.1,43,0
		c4.1,0,5.1,0.5,5.1,2.1c-0.2,4.6,0,4.6-11.3,4.6C101.8,218.4,95.5,218.4,89.2,218.4z"/>
</g>
<g>
	<path class="st1" d="M156.6,135c0-0.1,0-0.2,0-0.3c9.3,0,18.6,0,27.9,0c0,0.1,0,0.2,0,0.3C175.2,135,165.9,135,156.6,135z"/>
	<path class="st2" d="M156.6,135c9.3,0,18.6,0,27.9,0c3.1,0.1,5,1.6,6,4.6c1.8,5.2,2.5,10.5,2.8,15.9c0.2,3.7,0.1,7.4,0,11.2
		c-0.1,5.9-1.5,11.6-3.4,17.1c-2,5.9-3.2,12-2.8,18.3c0.2,4.3,1.5,8.4,2.4,12.5c0.5,2.5,1.1,5.1,0.6,7.7c-0.4,2.4-1.2,3.3-3.6,3.6
		c-3.9,0.6-7.8,0.3-11.7,0.3c-5.4,0.1-10.7,0-16.1,0c-1.5,0-2.9-0.1-4.4-0.4c-1.5-0.3-2.5-1-2.8-2.7c-0.8-3.6,0.3-7,1-10.4
		c1-4.6,2.1-9.1,2-13.9c-0.1-5.8-1.6-11.4-3.5-16.9c-2.6-7.7-3.4-15.6-3-23.6c0.3-6.4,0.8-12.7,2.9-18.9
		C151.8,136.7,153.6,135.2,156.6,135z M170.5,154.5c5.9,0,11.8,0,17.8,0c1.4,0,1.8-0.5,1.7-1.8c-0.6-4.2-1.2-8.4-2.7-12.4
		c-0.6-1.6-1.7-2.3-3.3-2.3c-8.8,0-17.7,0-26.5,0c-1.8,0-2.9,0.8-3.5,2.6c-1.3,3.9-2,8-2.5,12.1c-0.2,1.7,0.3,1.8,1.7,1.8
		C159,154.4,164.8,154.5,170.5,154.5z"/>
	<path class="st1" d="M170.5,154.5c-5.8,0-11.6,0-17.4,0c-1.4,0-2-0.1-1.7-1.8c0.6-4.1,1.2-8.1,2.5-12.1c0.6-1.8,1.7-2.6,3.5-2.6
		c8.8,0,17.7,0,26.5,0c1.6,0,2.7,0.7,3.3,2.3c1.5,4,2.1,8.2,2.7,12.4c0.2,1.3-0.2,1.8-1.7,1.8C182.4,154.4,176.5,154.5,170.5,154.5z
		"/>
</g>
</svg>
