<?xml version="1.0" encoding="utf-8"?>
<!-- Generator: Adobe Illustrator 21.0.0, SVG Export Plug-In . SVG Version: 6.00 Build 0)  -->
<svg version="1.1" id="Ebene_1" xmlns="http://www.w3.org/2000/svg" xmlns:xlink="http://www.w3.org/1999/xlink" x="0px" y="0px"
	 viewBox="0 0 253.6 294.9" style="enable-background:new 0 0 253.6 294.9;" xml:space="preserve">
<style type="text/css">
	.st0{fill:#BFBFBF;}
	.st1{fill:#BEBEBE;}
	.st2{fill:#F0A436;}
	.st3{fill:none;stroke:#FFFFFF;stroke-width:5.7438;stroke-miterlimit:10;}
</style>
<g>
	<path class="st0" d="M7.5,186.3c12.7,0,25.3,0.2,38,0c3.5,0,5,0.6,5,4.6c-0.2,18.5-0.2,37.1,0,55.6c0,3.5-0.8,4.7-4.5,4.6
		c-12.8-0.2-25.7-0.1-38.5-0.1C7.5,229.5,7.5,207.9,7.5,186.3z"/>
	<path class="st1" d="M115.2,143.9c0,33.8-0.1,67.6,0.1,101.4c0,5-1.5,6.1-6.1,5.9c-10.5-0.3-20.9-0.3-31.4,0
		c-4.3,0.1-5.6-1-5.6-5.5c0.2-62.2,0.1-124.4,0.1-186.6c0-6.3,0.2-12.7-0.1-19c-0.2-3.7,1.2-4.5,4.6-4.5c11.1,0.2,22.2,0.2,33.3,0
		c3.9-0.1,5.1,1,5.1,5C115.1,75,115.2,109.5,115.2,143.9z"/>
	<path class="st0" d="M201.9,175.3c0-23.3,0.1-46.7-0.1-70c0-3.6,0.8-5,4.7-4.9c11.3,0.3,22.5,0.2,33.8,0c3.1,0,4.5,0.6,4.5,4.1
		c-0.1,47.5-0.1,95,0,142.4c0,3.5-1.3,4.2-4.5,4.2c-11.3-0.1-22.6-0.2-33.8,0c-3.9,0.1-4.8-1.2-4.7-4.9
		C202,222.7,201.9,199,201.9,175.3z"/>
	<path class="st0" d="M180,197.2c0,16.4-0.1,32.7,0.1,49.1c0,3.5-0.7,5.1-4.7,5c-11.4-0.3-22.9-0.2-34.3,0c-3.1,0-4.1-1-4.1-4.1
		c0.1-33.2,0.1-66.4,0-99.5c0-3.5,1.2-4.2,4.4-4.2c11.4,0.2,22.9,0.2,34.3,0c3.3-0.1,4.3,1,4.3,4.3C179.9,164.2,180,180.7,180,197.2
		z"/>
</g>
<g>
	<g>
		<path class="st2" d="M151.8,109.5c26.3,0,51.3,0,76.3,0c2.5,0,3.4,0.6,3.3,3.2c-0.1,25-0.1,49.9-0.1,74.9
			c-1.7,0.6-2.1-0.9-2.9-1.6c-8.2-8.1-16.4-16.2-24.4-24.5c-2.3-2.4-3.5-2.4-5.8,0.1c-19.6,21.3-39.5,42.5-59.1,63.8
			c-2.6,2.8-4,3.4-7,0.2c-15.5-16.6-31.4-32.9-47-49.4c-2.4-2.5-3.7-2.6-6.4-0.3c-21.2,18.4-42.6,36.7-63.9,55
			c-0.7,0.6-1.4,1.1-2.1,1.6c-1.2-1.4,0.1-2,0.6-2.7c22.2-30.2,44.4-60.4,66.5-90.7c2-2.8,3.1-2.4,5.2-0.2
			c15.8,15.9,31.7,31.7,47.5,47.7c2.6,2.6,3.8,2.3,6.1-0.2c13.8-14.6,27.6-29,41.6-43.4c2.1-2.1,2-3.3-0.1-5.3
			C171,128.8,161.8,119.6,151.8,109.5z"/>
		<path class="st3" d="M151.8,109.5c26.3,0,51.3,0,76.3,0c2.5,0,3.4,0.6,3.3,3.2c-0.1,25-0.1,49.9-0.1,74.9
			c-1.7,0.6-2.1-0.9-2.9-1.6c-8.2-8.1-16.4-16.2-24.4-24.5c-2.3-2.4-3.5-2.4-5.8,0.1c-19.6,21.3-39.5,42.5-59.1,63.8
			c-2.6,2.8-4,3.4-7,0.2c-15.5-16.6-31.4-32.9-47-49.4c-2.4-2.5-3.7-2.6-6.4-0.3c-21.2,18.4-42.6,36.7-63.9,55
			c-0.7,0.6-1.4,1.1-2.1,1.6c-1.2-1.4,0.1-2,0.6-2.7c22.2-30.2,44.4-60.4,66.5-90.7c2-2.8,3.1-2.4,5.2-0.2
			c15.8,15.9,31.7,31.7,47.5,47.7c2.6,2.6,3.8,2.3,6.1-0.2c13.8-14.6,27.6-29,41.6-43.4c2.1-2.1,2-3.3-0.1-5.3
			C171,128.8,161.8,119.6,151.8,109.5z"/>
	</g>
</g>
</svg>
